<svg width="19" height="16" viewBox="0 0 19 16" fill="none" xmlns="http://www.w3.org/2000/svg">
<g clip-path="url(#clip0_230_65891)">
<path d="M10.1477 13.0692C13.4393 13.0692 16.1077 10.4008 16.1077 7.10925C16.1077 3.81766 13.4393 1.14929 10.1477 1.14929C6.85611 1.14929 4.18774 3.81766 4.18774 7.10925C4.18774 10.4008 6.85611 13.0692 10.1477 13.0692Z" fill="#4477EE"/>
<path d="M6.39554 7.58776C6.54356 7.41055 6.72868 7.268 6.93784 7.17019C7.14699 7.07238 7.37506 7.02168 7.60596 7.02168C7.83685 7.02168 8.06493 7.07238 8.27408 7.17019C8.48323 7.268 8.66836 7.41055 8.81638 7.58776C9.06715 7.34836 9.2413 7.03997 9.31681 6.7016C9.39232 6.36323 9.36579 6.01006 9.24058 5.68676C9.11537 5.36346 8.89711 5.08455 8.61339 4.8853C8.32967 4.68605 7.99323 4.57541 7.64663 4.56737C7.30002 4.55932 6.95882 4.65424 6.66616 4.84011C6.3735 5.02599 6.14253 5.29447 6.00246 5.61161C5.86239 5.92875 5.81951 6.28031 5.87924 6.62182C5.93897 6.96334 6.09863 7.27947 6.33803 7.53024C6.35675 7.54985 6.37592 7.56903 6.39554 7.58776Z" fill="white"/>
<path d="M11.1285 7.58776C11.2765 7.41055 11.4616 7.26801 11.6707 7.17019C11.8799 7.07238 12.108 7.02168 12.3389 7.02168C12.5698 7.02168 12.7978 7.07238 13.007 7.17019C13.2161 7.26801 13.4013 7.41055 13.5493 7.58776C13.8001 7.34836 13.9742 7.03997 14.0497 6.7016C14.1252 6.36323 14.0987 6.01006 13.9735 5.68676C13.8483 5.36346 13.63 5.08455 13.3463 4.8853C13.0626 4.68605 12.7261 4.57541 12.3795 4.56737C12.0329 4.55932 11.6917 4.65424 11.3991 4.84011C11.1064 5.02599 10.8754 5.29447 10.7354 5.61161C10.5953 5.92875 10.5524 6.28031 10.6121 6.62182C10.6719 6.96334 10.8315 7.27947 11.0709 7.53024C11.0897 7.54985 11.1088 7.56903 11.1285 7.58776Z" fill="white"/>
<path d="M7.00802 6.32585C7.34104 6.32585 7.61101 6.05588 7.61101 5.72286C7.61101 5.38984 7.34104 5.11987 7.00802 5.11987C6.675 5.11987 6.40503 5.38984 6.40503 5.72286C6.40503 6.05588 6.675 6.32585 7.00802 6.32585Z" fill="#4477EE"/>
<path d="M11.7407 6.32585C12.0737 6.32585 12.3437 6.05588 12.3437 5.72286C12.3437 5.38984 12.0737 5.11987 11.7407 5.11987C11.4077 5.11987 11.1377 5.38984 11.1377 5.72286C11.1377 6.05588 11.4077 6.32585 11.7407 6.32585Z" fill="#4477EE"/>
<path d="M5.85303 9.30041C6.24027 9.30041 6.5542 8.98649 6.5542 8.59924C6.5542 8.212 6.24027 7.89807 5.85303 7.89807C5.46578 7.89807 5.15186 8.212 5.15186 8.59924C5.15186 8.98649 5.46578 9.30041 5.85303 9.30041Z" fill="#FF6584"/>
<path d="M13.9165 9.30042C14.3038 9.30042 14.6177 8.98649 14.6177 8.59924C14.6177 8.212 14.3038 7.89807 13.9165 7.89807C13.5293 7.89807 13.2153 8.212 13.2153 8.59924C13.2153 8.98649 13.5293 9.30042 13.9165 9.30042Z" fill="#FF6584"/>
<path d="M9.88476 7.1969L9.35889 9.47572L10.2353 8.59929L9.88476 7.1969Z" fill="#FF6584"/>
<path d="M12.5869 15.9616L11.9898 15.4605L12.0037 15.9616H11.8183L11.8035 15.4318L10.9974 15.9616H10.6599L11.7975 15.2139L11.7534 13.6439L11.7205 12.4582L11.9054 12.4531L11.9388 13.6439L11.9828 15.2125L12.8752 15.9616H12.5869Z" fill="#4477EE"/>
<path d="M9.78195 15.9616L9.18492 15.4605L9.19884 15.9616H9.0139L8.99906 15.4318L8.19292 15.9616H7.85547L8.99258 15.2139L8.94855 13.6439L8.91563 12.4582L9.101 12.4531L9.13441 13.6439L9.17796 15.2125L10.0703 15.9616H9.78195Z" fill="#4477EE"/>
<path d="M10.2353 0.711057C10.0718 0.711057 9.92755 0.83809 9.8311 1.03321C9.74608 0.739807 9.56747 0.535767 9.35888 0.535767C9.34471 0.537176 9.33064 0.539539 9.31679 0.542839C9.23661 0.229582 9.05026 0.0098877 8.83301 0.0098877C8.54257 0.0098877 8.30713 0.402298 8.30713 0.886353C8.30713 1.37041 8.54257 1.76282 8.83301 1.76282C8.84718 1.76141 8.86125 1.75905 8.8751 1.75575C8.95528 2.069 9.14163 2.2887 9.35888 2.2887C9.52242 2.2887 9.66668 2.16166 9.76313 1.96655C9.84815 2.25995 10.0268 2.46399 10.2353 2.46399C10.5258 2.46399 10.7612 2.07158 10.7612 1.58752C10.7612 1.10347 10.5258 0.711057 10.2353 0.711057Z" fill="#4477EE"/>
<path d="M4.52833 7.29471L1.24517 6.76219C1.07973 6.73535 0.911255 6.70846 0.745281 6.73182C0.579308 6.75518 0.413162 6.8369 0.328552 6.98158C0.287889 7.05112 0.268175 7.13091 0.271778 7.21139C0.275382 7.29186 0.30215 7.36957 0.348865 7.4352C0.39558 7.50082 0.460256 7.55155 0.535114 7.5813C0.609972 7.61104 0.691826 7.61854 0.77084 7.60287C0.59163 7.59706 0.403271 7.59322 0.244243 7.67604C0.085215 7.75887 -0.0273913 7.96006 0.0501401 8.12173C0.0734049 8.16636 0.104878 8.20619 0.142911 8.23914C0.262587 8.34641 0.410194 8.41761 0.568648 8.44448C0.727101 8.47135 0.889925 8.4528 1.03828 8.39099C0.917408 8.56432 0.677571 8.59006 0.470103 8.6302C0.262636 8.67033 0.0227971 8.78768 0.0150871 8.99886C0.00642391 9.23613 0.288812 9.36225 0.521283 9.41055C1.7626 9.66597 3.05109 9.56095 4.23466 9.10789C4.36768 9.06211 4.49358 8.99783 4.60866 8.91693C4.73764 8.81898 4.83567 8.68593 4.891 8.53372C4.94634 8.3815 4.95664 8.21657 4.92066 8.05865C4.88469 7.90074 4.80397 7.75653 4.68817 7.64331C4.57236 7.53008 4.42638 7.45262 4.2677 7.4202" fill="#4477EE"/>
<path d="M18.6996 9.98577C18.1578 8.84013 17.2995 7.87341 16.226 7.1997C16.1095 7.12089 15.9825 7.0589 15.8486 7.01555C15.6928 6.97132 15.5276 6.97293 15.3727 7.02018C15.2178 7.06743 15.0797 7.15833 14.9751 7.28199C14.8705 7.40564 14.8038 7.55682 14.7829 7.71743C14.762 7.87803 14.7878 8.04126 14.8573 8.18757L14.6003 8.05468C15.1162 9.03606 15.632 10.0174 16.1478 10.9988C16.2258 11.1472 16.3056 11.298 16.424 11.4166C16.5424 11.5352 16.7076 11.6189 16.8741 11.5996C16.9402 11.5922 17.0035 11.569 17.0588 11.532C17.1141 11.4951 17.1597 11.4454 17.1918 11.3871C17.2239 11.3289 17.2416 11.2638 17.2433 11.1973C17.245 11.1308 17.2308 11.0649 17.2018 11.005C17.2742 11.1071 17.3694 11.1908 17.4798 11.2496C17.6416 11.3269 17.87 11.296 17.9527 11.1369C17.9743 11.0915 17.9873 11.0424 17.9908 10.9922C18.0046 10.8321 17.9728 10.6713 17.899 10.5285C17.8253 10.3857 17.7126 10.2667 17.574 10.1853C17.7852 10.1777 17.9499 10.354 18.1067 10.4957C18.2634 10.6374 18.5014 10.7585 18.6748 10.6378C18.8696 10.5021 18.8007 10.2006 18.6996 9.98577Z" fill="#4477EE"/>
</g>
<defs>
<clipPath id="clip0_230_65891">
<rect width="18.8036" height="16" fill="white"/>
</clipPath>
</defs>
</svg>
