<svg width="142" height="229" viewBox="0 0 142 229" fill="none" xmlns="http://www.w3.org/2000/svg">
<g clip-path="url(#clip0_233_65929)">
<path d="M42.2661 202.094L42.2652 202.093L44.384 201.21L53.3235 197.429L56.5279 196.074L56.7738 196.695L61.0782 207.568L48.9642 212.697L48.9006 212.755L49.717 214.681C49.8287 214.857 49.924 215.043 50.0018 215.236C50.5736 216.681 49.4935 218.118 48.4725 218.522C47.4515 218.927 46.1602 218.084 45.5884 216.639C45.0243 215.214 45.5756 213.404 46.5706 212.967L46.5697 212.965L48.6884 212.083L55.9363 209.264L51.795 198.803L52.4088 198.56L56.5516 209.025L57.4478 208.676L53.2889 198.171L53.1793 198.217L44.6597 201.825L44.5962 201.882L45.4124 203.808C45.5242 203.984 45.6196 204.17 45.6973 204.364C46.2692 205.808 45.1891 207.245 44.1681 207.649C43.1471 208.054 41.8558 207.211 41.284 205.767C40.7199 204.342 41.2711 202.532 42.2661 202.094Z" fill="#3F3D56"/>
<path d="M0.33713 228.787C4.73468 226.272 3.85471 220.752 3.85471 220.752C3.96536 217.166 6.92673 217.674 6.92673 217.674L8.0045 217.92C8.50518 217.687 9.0565 217.585 9.60716 217.623L11.2467 217.899C7.51341 218.777 7.82012 221.901 7.82012 221.901L7.2971 225.554L17.0793 221.606L15.9561 218.957C15.8009 218.712 15.6685 218.454 15.5605 218.185C14.7663 216.179 16.2664 214.183 17.6844 213.622C19.1025 213.06 20.896 214.231 21.6903 216.237C22.4736 218.216 21.708 220.73 20.3261 221.337L20.3273 221.339L17.3846 222.565L17.3627 222.496L0.33713 228.787ZM5.30466 222.368L4.99098 225.865C6.09858 224.31 6.61892 222.413 6.4594 220.51C6.48539 219.833 6.71361 219.18 7.11455 218.634C6.49818 219.029 6.00294 219.587 5.68355 220.246C5.36416 220.905 5.23303 221.639 5.30466 222.368Z" fill="#3F3D56"/>
<path d="M74.956 177.075L74.9549 177.073L77.8976 175.847L90.1963 171.064L87.0922 168.301C86.485 167.491 85.5882 166.947 84.5895 166.784C83.5908 166.62 82.5676 166.849 81.7338 167.423L82.697 165.991C82.697 165.991 84.5079 163.592 87.0428 166.13C87.0428 166.13 90.1793 170.755 95.1058 169.576L78.2806 176.7L78.1923 176.781L79.326 179.455C79.4813 179.7 79.6137 179.958 79.7217 180.227C80.5159 182.233 79.0158 184.229 77.5977 184.79C76.1797 185.352 74.3862 184.181 73.5919 182.175C72.8085 180.196 73.5742 177.682 74.956 177.075Z" fill="#7399F2"/>
<path d="M29.93 161.421L31.0639 164.096C31.2191 164.34 31.3515 164.599 31.4594 164.867C32.2537 166.874 30.7536 168.869 29.3356 169.431C27.9175 169.993 26.124 168.822 25.3297 166.816C24.5463 164.837 25.312 162.323 26.6938 161.716L26.6927 161.713L29.6354 160.487L39.702 156.573L33.9502 142.044L34.8026 141.706L40.5566 156.24L41.8014 155.756L36.025 141.165L35.8728 141.23L24.04 146.24L23.9517 146.32L25.0855 148.994C25.2406 149.239 25.3731 149.497 25.481 149.766C26.2753 151.773 24.7752 153.768 23.3571 154.33C21.9391 154.892 20.1455 153.721 19.3513 151.715C18.5679 149.736 19.3335 147.222 20.7154 146.615L20.7142 146.612L23.6569 145.386L35.6826 140.301L36.0731 140.135L40.5237 138.253L46.8436 154.217L30.0184 161.341L29.93 161.421Z" fill="#3F3D56"/>
<path d="M83.2496 79.6643L83.2476 79.6602L88.3133 77.5498L109.485 69.3164L104.141 64.5604C104.141 64.5604 100.587 59.6267 94.9171 63.0487L96.5752 60.5832C96.5752 60.5832 99.6926 56.4544 104.056 60.8228C104.056 60.8228 109.455 68.7855 117.936 66.7558L88.9726 79.0195L88.8206 79.1574L90.7723 83.7612C91.0395 84.1823 91.2675 84.6271 91.4533 85.09C92.8205 88.5435 90.2383 91.9788 87.7972 92.946C85.356 93.9132 82.2686 91.8976 80.9013 88.4441C79.5528 85.0376 80.8708 80.71 83.2496 79.6643Z" fill="#3F3D56"/>
<path d="M67.7036 148.826C78.2177 142.812 76.1137 129.615 76.1137 129.615C76.3783 121.042 83.4587 122.255 83.4587 122.255L86.0356 122.844C87.2327 122.288 88.5508 122.044 89.8674 122.135L93.7874 122.795C84.8615 124.893 85.5948 132.362 85.5948 132.362L84.3443 141.097L107.733 131.658L105.047 125.324C104.676 124.739 104.36 124.121 104.101 123.478C102.202 118.681 105.789 113.91 109.179 112.567C112.57 111.223 116.858 114.023 118.757 118.82C120.63 123.551 118.8 129.561 115.496 131.014L115.498 131.019L108.463 133.951L108.41 133.785L67.7036 148.826ZM79.5805 133.479L78.8279 141.868C83.2439 136.004 82.3413 129.037 82.3413 129.037C82.4035 127.419 82.9491 125.857 83.9077 124.552C78.835 127.589 79.5805 133.479 79.5805 133.479Z" fill="#3F3D56"/>
</g>
<defs>
<clipPath id="clip0_233_65929">
<rect width="142" height="229" fill="white" transform="matrix(-1 0 0 1 142 0)"/>
</clipPath>
</defs>
</svg>
