<svg width="142" height="229" viewBox="0 0 142 229" fill="none" xmlns="http://www.w3.org/2000/svg">
<g clip-path="url(#clip0_230_65557)">
<path d="M99.7339 202.094L99.7347 202.093L97.616 201.21L88.6764 197.429L85.4721 196.074L85.2261 196.695L80.9217 207.568L93.0358 212.697L93.0994 212.755L92.283 214.681C92.1713 214.857 92.0759 215.043 91.9982 215.236C91.4264 216.681 92.5064 218.118 93.5274 218.522C94.5484 218.927 95.8397 218.084 96.4116 216.639C96.9756 215.214 96.4244 213.404 95.4294 212.967L95.4303 212.965L93.3116 212.083L86.0637 209.264L90.205 198.803L89.5911 198.56L85.4484 209.025L84.5521 208.676L88.7111 198.171L88.8207 198.217L97.3402 201.825L97.4038 201.882L96.5875 203.808C96.4758 203.984 96.3804 204.17 96.3027 204.364C95.7308 205.808 96.8109 207.245 97.8319 207.649C98.8529 208.054 100.144 207.211 100.716 205.767C101.28 204.342 100.729 202.532 99.7339 202.094Z" fill="#3F3D56"/>
<path d="M141.663 228.787C137.265 226.272 138.145 220.752 138.145 220.752C138.035 217.166 135.073 217.674 135.073 217.674L133.995 217.92C133.495 217.687 132.944 217.585 132.393 217.623L130.753 217.899C134.487 218.777 134.18 221.901 134.18 221.901L134.703 225.554L124.921 221.606L126.044 218.957C126.199 218.712 126.332 218.454 126.439 218.185C127.234 216.179 125.734 214.183 124.316 213.622C122.897 213.06 121.104 214.231 120.31 216.237C119.526 218.216 120.292 220.73 121.674 221.337L121.673 221.339L124.615 222.565L124.637 222.496L141.663 228.787ZM136.695 222.368L137.009 225.865C135.901 224.31 135.381 222.413 135.541 220.51C135.515 219.833 135.286 219.18 134.885 218.634C135.502 219.029 135.997 219.587 136.316 220.246C136.636 220.905 136.767 221.639 136.695 222.368Z" fill="#3F3D56"/>
<path d="M67.044 177.075L67.0451 177.073L64.1024 175.847L51.8037 171.064L54.9078 168.301C55.515 167.491 56.4118 166.947 57.4105 166.784C58.4092 166.62 59.4324 166.849 60.2662 167.423L59.303 165.991C59.303 165.991 57.4921 163.592 54.9572 166.13C54.9572 166.13 51.8207 170.755 46.8942 169.576L63.7194 176.7L63.8077 176.781L62.674 179.455C62.5187 179.7 62.3863 179.958 62.2783 180.227C61.4841 182.233 62.9842 184.229 64.4023 184.79C65.8203 185.352 67.6138 184.181 68.4081 182.175C69.1915 180.196 68.4258 177.682 67.044 177.075Z" fill="#3F3D56"/>
<path d="M112.07 161.421L110.936 164.096C110.781 164.34 110.649 164.599 110.541 164.867C109.746 166.874 111.246 168.869 112.664 169.431C114.082 169.993 115.876 168.822 116.67 166.816C117.454 164.837 116.688 162.323 115.306 161.716L115.307 161.713L112.365 160.487L102.298 156.573L108.05 142.044L107.197 141.706L101.443 156.24L100.199 155.756L105.975 141.165L106.127 141.23L117.96 146.24L118.048 146.32L116.915 148.994C116.759 149.239 116.627 149.497 116.519 149.766C115.725 151.773 117.225 153.768 118.643 154.33C120.061 154.892 121.854 153.721 122.649 151.715C123.432 149.736 122.666 147.222 121.285 146.615L121.286 146.612L118.343 145.386L106.317 140.301L105.927 140.135L101.476 138.253L95.1564 154.217L111.982 161.341L112.07 161.421Z" fill="#4477EE"/>
<path d="M58.7504 79.6643L58.7524 79.6602L53.6868 77.5498L32.5152 69.3164L37.8587 64.5604C37.8587 64.5604 41.4131 59.6267 47.0829 63.0487L45.4248 60.5832C45.4248 60.5832 42.3074 56.4544 37.9438 60.8228C37.9438 60.8228 32.5446 68.7855 24.0638 66.7558L53.0274 79.0195L53.1794 79.1574L51.2277 83.7612C50.9605 84.1823 50.7326 84.6271 50.5467 85.09C49.1795 88.5435 51.7617 91.9788 54.2029 92.946C56.644 93.9132 59.7314 91.8976 61.0987 88.4441C62.4472 85.0376 61.1292 80.71 58.7504 79.6643Z" fill="#3F3D56"/>
<path d="M74.2964 148.826C63.7822 142.812 65.8862 129.615 65.8862 129.615C65.6217 121.042 58.5412 122.255 58.5412 122.255L55.9643 122.844C54.7673 122.288 53.4491 122.044 52.1325 122.135L48.2126 122.795C57.1385 124.893 56.4051 132.362 56.4051 132.362L57.6556 141.097L34.2674 131.658L36.9527 125.324C37.3238 124.739 37.6405 124.121 37.8986 123.478C39.7976 118.681 36.211 113.91 32.8205 112.567C29.43 111.223 25.142 114.023 23.243 118.82C21.3699 123.551 23.2004 129.561 26.5044 131.014L26.5016 131.019L33.5373 133.951L33.5897 133.785L74.2964 148.826ZM62.4194 133.479L63.172 141.868C58.7561 136.004 59.6587 129.037 59.6587 129.037C59.5964 127.419 59.0508 125.857 58.0923 124.552C63.165 127.589 62.4194 133.479 62.4194 133.479Z" fill="#3F3D56"/>
</g>
<defs>
<clipPath id="clip0_230_65557">
<rect width="142" height="229" fill="white"/>
</clipPath>
</defs>
</svg>
