<svg width="83" height="70" viewBox="0 0 83 70" fill="none" xmlns="http://www.w3.org/2000/svg">
<g clip-path="url(#clip0_240_65945)">
<path d="M44.7921 57.1779C59.3214 57.1779 71.0996 45.5039 71.0996 31.1031C71.0996 16.7024 59.3214 5.02831 44.7921 5.02831C30.2629 5.02831 18.4846 16.7024 18.4846 31.1031C18.4846 45.5039 30.2629 57.1779 44.7921 57.1779Z" fill="#3F3D56"/>
<path d="M28.2299 33.1963C28.8833 32.421 29.7004 31.7973 30.6236 31.3694C31.5468 30.9415 32.5535 30.7197 33.5727 30.7197C34.5919 30.7197 35.5986 30.9415 36.5218 31.3694C37.445 31.7973 38.2622 32.421 38.9156 33.1963C40.0225 32.1489 40.7912 30.7997 41.1245 29.3193C41.4578 27.8389 41.3407 26.2938 40.788 24.8794C40.2353 23.465 39.2719 22.2447 38.0195 21.373C36.7672 20.5013 35.2822 20.0172 33.7522 19.982C32.2223 19.9469 30.7162 20.3621 29.4244 21.1753C28.1326 21.9885 27.1131 23.1631 26.4948 24.5506C25.8765 25.9381 25.6873 27.4762 25.9509 28.9703C26.2146 30.4644 26.9193 31.8475 27.976 32.9446C28.0587 33.0304 28.1433 33.1143 28.2299 33.1963Z" fill="white"/>
<path d="M49.1212 33.1963C49.7746 32.421 50.5917 31.7974 51.515 31.3694C52.4382 30.9415 53.4449 30.7197 54.4641 30.7197C55.4832 30.7197 56.49 30.9415 57.4132 31.3694C58.3364 31.7974 59.1535 32.421 59.8069 33.1963C60.9138 32.1489 61.6825 30.7997 62.0158 29.3193C62.3491 27.8389 62.232 26.2938 61.6794 24.8794C61.1267 23.465 60.1633 22.2447 58.9109 21.373C57.6585 20.5013 56.1735 20.0172 54.6436 19.982C53.1137 19.9469 51.6076 20.3621 50.3158 21.1753C49.024 21.9885 48.0045 23.1631 47.3862 24.5506C46.7679 25.9381 46.5786 27.4762 46.8423 28.9703C47.1059 30.4644 47.8107 31.8475 48.8674 32.9446C48.95 33.0304 49.0346 33.1143 49.1212 33.1963Z" fill="white"/>
<path d="M30.9334 27.6757C32.4033 27.6757 33.595 26.4946 33.595 25.0376C33.595 23.5806 32.4033 22.3995 30.9334 22.3995C29.4634 22.3995 28.2717 23.5806 28.2717 25.0376C28.2717 26.4946 29.4634 27.6757 30.9334 27.6757Z" fill="#3F3D56"/>
<path d="M51.8237 27.6757C53.2937 27.6757 54.4853 26.4946 54.4853 25.0376C54.4853 23.5806 53.2937 22.3995 51.8237 22.3995C50.3538 22.3995 49.1621 23.5806 49.1621 25.0376C49.1621 26.4946 50.3538 27.6757 51.8237 27.6757Z" fill="#3F3D56"/>
<path d="M25.8352 40.6895C27.5446 40.6895 28.9302 39.316 28.9302 37.6218C28.9302 35.9276 27.5446 34.5542 25.8352 34.5542C24.1259 34.5542 22.7402 35.9276 22.7402 37.6218C22.7402 39.316 24.1259 40.6895 25.8352 40.6895Z" fill="#FF6584"/>
<path d="M61.4278 40.6895C63.1371 40.6895 64.5228 39.316 64.5228 37.6218C64.5228 35.9276 63.1371 34.5542 61.4278 34.5542C59.7184 34.5542 58.3328 35.9276 58.3328 37.6218C58.3328 39.316 59.7184 40.6895 61.4278 40.6895Z" fill="#FF6584"/>
<path d="M43.6315 31.4865L41.3103 41.4563L45.1789 37.6219L43.6315 31.4865Z" fill="#FF6584"/>
<path d="M55.5589 69.8319L52.9234 67.6397L52.9848 69.8319H52.1664L52.1009 67.5138L48.5427 69.8319H47.0532L52.0744 66.5607L51.8798 59.692L51.7345 54.5044L52.5511 54.4822L52.6985 59.692L52.8927 66.5546L56.8314 69.8319H55.5589Z" fill="#3F3D56"/>
<path d="M43.1776 69.8319L40.5423 67.6397L40.6038 69.8319H39.7874L39.7219 67.5138L36.1636 69.8319H34.6741L39.6933 66.5607L39.499 59.692L39.3537 54.5044L40.1719 54.4822L40.3194 59.692L40.5116 66.5546L44.4504 69.8319H43.1776Z" fill="#3F3D56"/>
<path d="M45.179 3.11105C44.4571 3.11105 43.8203 3.66682 43.3946 4.52045C43.0193 3.23683 42.2309 2.34415 41.3102 2.34415C41.2476 2.35032 41.1856 2.36066 41.1244 2.37509C40.7705 1.00459 39.9479 0.0434322 38.989 0.0434322C37.707 0.0434322 36.6677 1.76023 36.6677 3.87797C36.6677 5.9957 37.707 7.7125 38.989 7.7125C39.0515 7.70634 39.1136 7.696 39.1748 7.68156C39.5287 9.05206 40.3512 10.0132 41.3102 10.0132C42.0321 10.0132 42.6689 9.45746 43.0946 8.60382C43.4699 9.88744 44.2582 10.7801 45.179 10.7801C46.461 10.7801 47.5002 9.06332 47.5002 6.94558C47.5002 4.82784 46.461 3.11105 45.179 3.11105Z" fill="#3F3D56"/>
<path d="M19.9887 31.9144L5.49667 29.5847C4.76638 29.4673 4.02274 29.3496 3.29013 29.4518C2.55751 29.554 1.82414 29.9115 1.45067 30.5445C1.27118 30.8487 1.18416 31.1978 1.20007 31.5499C1.21597 31.902 1.33413 32.242 1.54033 32.5291C1.74653 32.8162 2.03201 33.0381 2.36244 33.1683C2.69287 33.2984 3.05417 33.3312 3.40295 33.2627C2.61191 33.2372 1.78048 33.2204 1.07852 33.5828C0.376568 33.9451 -0.120481 34.8253 0.221746 35.5327C0.324438 35.7279 0.463361 35.9022 0.631239 36.0463C1.1595 36.5156 1.81104 36.8271 2.51046 36.9447C3.20988 37.0622 3.92859 36.9811 4.58342 36.7107C4.0499 37.469 2.99125 37.5816 2.07548 37.7572C1.15971 37.9328 0.101053 38.4462 0.0670208 39.3701C0.0287811 40.4082 1.27525 40.9599 2.30139 41.1712C7.78063 42.2887 13.4681 41.8292 18.6924 39.8471C19.2795 39.6468 19.8353 39.3656 20.3432 39.0116C20.9126 38.5831 21.3453 38.001 21.5895 37.3351C21.8338 36.6692 21.8792 35.9476 21.7204 35.2567C21.5617 34.5658 21.2053 33.9349 20.6942 33.4395C20.183 32.9442 19.5387 32.6053 18.8382 32.4635" fill="#3F3D56"/>
<path d="M82.541 43.688C80.1491 38.6758 76.3605 34.4464 71.6224 31.499C71.108 31.1542 70.5473 30.8829 69.9565 30.6933C69.2688 30.4998 68.5394 30.5068 67.8556 30.7136C67.1718 30.9203 66.5626 31.3179 66.1009 31.8589C65.6392 32.3999 65.3446 33.0613 65.2524 33.764C65.1601 34.4666 65.2741 35.1808 65.5806 35.8209L64.4465 35.2395C66.7235 39.533 69.0004 43.8265 71.2773 48.1201C71.6215 48.7692 71.9735 49.429 72.4962 49.9479C73.0189 50.4669 73.7479 50.833 74.4828 50.7484C74.7746 50.716 75.0542 50.6146 75.2982 50.4529C75.5423 50.2911 75.7436 50.0737 75.8853 49.8189C76.027 49.564 76.1049 49.2792 76.1126 48.9884C76.1203 48.6975 76.0574 48.409 75.9293 48.1472C76.2489 48.5937 76.6691 48.9601 77.1566 49.2173C77.8706 49.5556 78.8791 49.4204 79.2438 48.7242C79.3395 48.5255 79.3966 48.3107 79.412 48.0911C79.4729 47.3905 79.3325 46.6872 79.007 46.0625C78.6815 45.4377 78.1841 44.9171 77.5725 44.5609C78.5046 44.5278 79.2317 45.2988 79.9236 45.9187C80.6156 46.5387 81.6658 47.0688 82.4313 46.5405C83.2914 45.9469 82.9872 44.6279 82.541 43.688Z" fill="#3F3D56"/>
</g>
<defs>
<clipPath id="clip0_240_65945">
<rect width="83" height="70" fill="white"/>
</clipPath>
</defs>
</svg>
