<svg width="158" height="36" viewBox="0 0 158 36" fill="none" xmlns="http://www.w3.org/2000/svg">
<g clip-path="url(#clip0_206_193)">
<path d="M16.9623 29.3436C24.3158 29.3436 30.277 23.3784 30.277 16.02C30.277 8.66162 24.3158 2.69645 16.9623 2.69645C9.60874 2.69645 3.64752 8.66162 3.64752 16.02C3.64752 23.3784 9.60874 29.3436 16.9623 29.3436Z" fill="#3F3D56"/>
<path d="M8.57981 17.0896C8.9105 16.6934 9.32407 16.3747 9.79132 16.1561C10.2586 15.9374 10.7681 15.8241 11.2839 15.8241C11.7998 15.8241 12.3093 15.9374 12.7765 16.1561C13.2438 16.3747 13.6574 16.6934 13.988 17.0896C14.5539 16.549 14.945 15.8513 15.1109 15.0863C15.2769 14.3214 15.21 13.5242 14.9191 12.7976C14.6281 12.0709 14.1264 11.4481 13.4784 11.0095C12.8305 10.5708 12.0662 10.3364 11.2839 10.3364C10.5017 10.3364 9.73731 10.5708 9.08941 11.0095C8.4415 11.4481 7.93973 12.0709 7.64877 12.7976C7.35782 13.5242 7.291 14.3214 7.45695 15.0863C7.62289 15.8513 8.01398 16.549 8.57981 17.0896Z" fill="white"/>
<path d="M19.1533 17.0895C19.484 16.6934 19.8976 16.3747 20.3648 16.1561C20.8321 15.9374 21.3416 15.8241 21.8574 15.8241C22.3732 15.8241 22.8828 15.9374 23.35 16.1561C23.8173 16.3747 24.2308 16.6934 24.5615 17.0895C25.1273 16.549 25.5184 15.8513 25.6844 15.0863C25.8503 14.3214 25.7835 13.5242 25.4926 12.7975C25.2016 12.0709 24.6998 11.4481 24.0519 11.0095C23.404 10.5708 22.6397 10.3364 21.8574 10.3364C21.0751 10.3364 20.3108 10.5708 19.6629 11.0095C19.015 11.4481 18.5132 12.0709 18.2223 12.7975C17.9313 13.5242 17.8645 14.3214 18.0304 15.0863C18.1964 15.8513 18.5875 16.549 19.1533 17.0895Z" fill="white"/>
<path d="M9.94803 14.2687C10.692 14.2687 11.2951 13.6652 11.2951 12.9207C11.2951 12.1762 10.692 11.5727 9.94803 11.5727C9.20405 11.5727 8.60093 12.1762 8.60093 12.9207C8.60093 13.6652 9.20405 14.2687 9.94803 14.2687Z" fill="#3F3D56"/>
<path d="M20.5211 14.2687C21.2651 14.2687 21.8682 13.6652 21.8682 12.9207C21.8682 12.1762 21.2651 11.5727 20.5211 11.5727C19.7771 11.5727 19.174 12.1762 19.174 12.9207C19.174 13.6652 19.7771 14.2687 20.5211 14.2687Z" fill="#3F3D56"/>
<path d="M7.36782 20.9184C8.23294 20.9184 8.93426 20.2166 8.93426 19.3509C8.93426 18.4852 8.23294 17.7834 7.36782 17.7834C6.5027 17.7834 5.80138 18.4852 5.80138 19.3509C5.80138 20.2166 6.5027 20.9184 7.36782 20.9184Z" fill="#FF6584"/>
<path d="M25.3819 20.9184C26.247 20.9184 26.9483 20.2166 26.9483 19.3509C26.9483 18.4852 26.247 17.7834 25.3819 17.7834C24.5168 17.7834 23.8155 18.4852 23.8155 19.3509C23.8155 20.2166 24.5168 20.9184 25.3819 20.9184Z" fill="#FF6584"/>
<path d="M16.3748 16.2159L15.2 21.3102L17.158 19.3509L16.3748 16.2159Z" fill="#FF6584"/>
<path d="M22.4114 35.8095L21.0776 34.6893L21.1087 35.8095H20.6944L20.6613 34.625L18.8605 35.8095H18.1066L20.6479 34.138L20.5495 30.6282L20.4759 27.9775L20.8892 27.9661L20.9637 30.6282L21.0621 34.1348L23.0555 35.8095H22.4114Z" fill="#3F3D56"/>
<path d="M16.1452 35.8095L14.8114 34.6893L14.8425 35.8095H14.4293L14.3961 34.625L12.5953 35.8095H11.8414L14.3816 34.138L14.2833 30.6282L14.2098 27.9775L14.6239 27.9661L14.6985 30.6282L14.7958 34.1348L16.7893 35.8095H16.1452Z" fill="#3F3D56"/>
<path d="M17.1581 1.71678C16.7927 1.71678 16.4704 2.00076 16.255 2.43695C16.065 1.78105 15.666 1.32491 15.2 1.32491C15.1684 1.32806 15.1369 1.33334 15.106 1.34072C14.9269 0.640432 14.5106 0.149303 14.0252 0.149303C13.3764 0.149303 12.8504 1.02654 12.8504 2.10865C12.8504 3.19077 13.3764 4.068 14.0252 4.068C14.0569 4.06485 14.0883 4.05957 14.1193 4.05219C14.2984 4.75248 14.7147 5.24361 15.2 5.24361C15.5654 5.24361 15.8877 4.95963 16.1031 4.52344C16.2931 5.17934 16.6921 5.63548 17.1581 5.63548C17.8069 5.63548 18.3329 4.75824 18.3329 3.67613C18.3329 2.59401 17.8069 1.71678 17.1581 1.71678Z" fill="#3F3D56"/>
<path d="M4.46466 21.0691C3.95039 21.0691 3.44116 20.9677 2.96604 20.7708C2.49091 20.5738 2.05921 20.2852 1.69556 19.9213C1.33192 19.5574 1.04346 19.1254 0.846658 18.65C0.649855 18.1746 0.548564 17.665 0.548564 17.1504L0.548564 15.191C0.548564 14.1517 0.96115 13.155 1.69556 12.4201C2.42997 11.6852 3.42605 11.2723 4.46466 11.2723L4.46466 21.0691Z" fill="#1957EA"/>
<path d="M29.4599 11.2723C29.9742 11.2723 30.4834 11.3737 30.9585 11.5706C31.4336 11.7675 31.8653 12.0562 32.229 12.4201C32.5926 12.784 32.8811 13.216 33.0779 13.6914C33.2747 14.1668 33.376 14.6764 33.376 15.191V17.1504C33.376 17.665 33.2747 18.1746 33.0779 18.65C32.8811 19.1254 32.5926 19.5574 32.229 19.9213C31.8653 20.2852 31.4336 20.5738 30.9585 20.7708C30.4834 20.9677 29.9742 21.0691 29.4599 21.0691L29.4599 11.2723Z" fill="#1957EA"/>
<path d="M31.512 15.4989H30.8906C30.8906 7.61374 24.4798 1.19865 16.5998 1.19865C8.71987 1.19865 2.30902 7.61374 2.30902 15.4989H1.68768C1.68768 7.27088 8.37725 0.5769 16.5998 0.5769C24.8225 0.5769 31.512 7.27089 31.512 15.4989Z" fill="#1957EA"/>
</g>
<path d="M50.4016 26.4856L46.4489 13.6353H46.3478C46.3628 13.9415 46.3853 14.4046 46.4152 15.0245C46.4526 15.637 46.4863 16.2905 46.5163 16.9851C46.5462 17.6797 46.5612 18.3071 46.5612 18.8673V26.4856H43.4507V10.1062H48.1895L52.0748 22.6316H52.1422L56.2634 10.1062H61.0022V26.4856H57.7569V18.7329C57.7569 18.2175 57.7644 17.6237 57.7794 16.9515C57.8018 16.2793 57.828 15.6407 57.858 15.0357C57.8879 14.4233 57.9104 13.9639 57.9253 13.6577H57.8243L53.5908 26.4856H50.4016Z" fill="#1957EA"/>
<path d="M78.5088 10.1062V20.7047C78.5088 21.8325 78.258 22.852 77.7564 23.7632C77.2623 24.6669 76.51 25.3839 75.4993 25.9142C74.4962 26.4445 73.231 26.7097 71.7038 26.7097C69.5328 26.7097 67.8783 26.157 66.7404 25.0516C65.6025 23.9462 65.0335 22.4823 65.0335 20.6598V10.1062H68.5034V20.1333C68.5034 21.4852 68.7804 22.4337 69.3344 22.9789C69.8884 23.5242 70.7081 23.7968 71.7936 23.7968C72.5572 23.7968 73.1748 23.6661 73.6465 23.4047C74.1256 23.1433 74.4774 22.7399 74.702 22.1947C74.9266 21.6495 75.0389 20.9549 75.0389 20.1109V10.1062H78.5088Z" fill="#1957EA"/>
<path d="M92.2199 21.937C92.2199 22.908 91.9841 23.752 91.5124 24.469C91.0408 25.186 90.3521 25.7387 89.4462 26.1271C88.5479 26.5155 87.4549 26.7097 86.1672 26.7097C85.5983 26.7097 85.0406 26.6723 84.4941 26.5976C83.9551 26.523 83.4348 26.4147 82.9332 26.2727C82.4391 26.1234 81.9674 25.9404 81.5183 25.7238V22.4972C82.2968 22.8408 83.1054 23.1507 83.9438 23.4271C84.7823 23.7034 85.6133 23.8416 86.4367 23.8416C87.0057 23.8416 87.4624 23.7669 87.8067 23.6175C88.1586 23.4682 88.4131 23.2628 88.5703 23.0014C88.7275 22.7399 88.8061 22.4412 88.8061 22.1051C88.8061 21.6943 88.6677 21.3432 88.3907 21.052C88.1137 20.7607 87.7319 20.4881 87.2453 20.2341C86.7661 19.9802 86.2234 19.7076 85.617 19.4163C85.2352 19.237 84.8197 19.0204 84.3705 18.7665C83.9214 18.5051 83.4946 18.1876 83.0904 17.8142C82.6861 17.4407 82.353 16.9889 82.091 16.4586C81.8364 15.9208 81.7092 15.2785 81.7092 14.5316C81.7092 13.5532 81.9338 12.7166 82.3829 12.022C82.8321 11.3274 83.4722 10.7971 84.3032 10.4311C85.1416 10.0577 86.1298 9.87097 87.2677 9.87097C88.1212 9.87097 88.9334 9.9718 89.7045 10.1735C90.4831 10.3677 91.2953 10.6515 92.1413 11.0249L91.0183 13.7249C90.2622 13.4187 89.5847 13.1834 88.9858 13.0191C88.3869 12.8473 87.7768 12.7614 87.1554 12.7614C86.7212 12.7614 86.3507 12.8324 86.0437 12.9743C85.7368 13.1088 85.5047 13.3029 85.3475 13.5569C85.1903 13.8034 85.1117 14.0909 85.1117 14.4195C85.1117 14.8079 85.224 15.1366 85.4486 15.4054C85.6806 15.6669 86.025 15.9208 86.4817 16.1673C86.9458 16.4138 87.5223 16.7013 88.211 17.0299C89.0495 17.4258 89.7644 17.8403 90.3558 18.2735C90.9547 18.6992 91.4151 19.2034 91.737 19.786C92.0589 20.3611 92.2199 21.0781 92.2199 21.937Z" fill="#1957EA"/>
<path d="M101.529 26.4856H98.0479V12.9967H93.5899V10.1062H105.987V12.9967H101.529V26.4856Z" fill="#1957EA"/>
<path d="M117.969 26.4856H108.514V10.1062H117.969V12.9519H111.995V16.5482H117.553V19.3939H111.995V23.6175H117.969V26.4856Z" fill="#1957EA"/>
<path d="M134.678 26.4856H130.703L126.885 20.2901L123.067 26.4856H119.339L124.785 18.0382L119.687 10.1062H123.527L127.065 15.9992L130.535 10.1062H134.285L129.131 18.2287L134.678 26.4856Z" fill="#1957EA"/>
<path d="M143.078 26.4856H139.597V12.9967H135.139V10.1062H147.536V12.9967H143.078V26.4856Z" fill="#1957EA"/>
<defs>
<clipPath id="clip0_206_193">
<rect width="33.1444" height="36" fill="white" transform="translate(0.418518)"/>
</clipPath>
</defs>
</svg>
